<?xml version="1.0" encoding="UTF-8"?>
<svg xmlns="http://www.w3.org/2000/svg" version="1.1" viewBox="0 0 510.24 55">
  <defs>
    <style>
      .st0 { fill: #fff; }
      .st1 { fill: #D2100B; }
      .st2 { fill: #CC9933; }
    </style>
  </defs>
  <rect class="st2" x="325.09" y="33.96" width="185.15" height="4.46"/>
  <rect class="st1" x="342.45" width="167.79" height="28.19"/>
  <g>
    <path class="st0" d="M379.93,0c-6.22,11.12-16.43,32.19-23.2,42.41-8.98,1.03-17.97,2.02-26.97,2.85-109.3,10.23-220.49,10.93-329.76.4V0h379.93Z"/>
    <path class="st2" d="M373.53,0c-6.12,10.51-16.15,30.41-22.81,40.08-8.83.96-17.66,1.9-26.51,2.7-107.46,9.66-216.78,10.33-324.21.37V0h373.53Z"/>
  </g>
  <g transform="translate(0,6.48) scale(0.7)">
    <path class="st0" d="M17.11,14.07c2.27,1.73,9.88,9.21,9.65,11.35-.08.78-3.38,5-4.18,5.92-.69.78-4.82,5.05-5.79,4.92-.62-.7-4.19-2.35-4.03-3.04.23-.98,6.96-5.99,6.74-7.99-.22-2.1-6.86-7.53-6.75-8.01l4.36-3.14h0Z"/>
  </g>
</svg>
