<?xml version="1.0" encoding="UTF-8"?>
<svg id="Laag_1" xmlns="http://www.w3.org/2000/svg" version="1.1" viewBox="0 0 239.52 60.56">
  <!-- Generator: Adobe Illustrator 30.3.0, SVG Export Plug-In . SVG Version: 2.1.3 Build 182)  -->
  <defs>
    <style>
      .st0 {
        fill: #fff;
      }
    </style>
  </defs>
  <g>
    <g>
      <polygon class="st0" points="173.68 18.2 178.11 18.22 174.4 34.9 168.59 34.93 166.23 23.23 163.88 35.02 158.12 35 154.42 18.22 159.07 18.21 161.23 30.02 163.47 18.34 169.07 18.22 171.59 30.17 173.68 18.2"/>
      <polygon class="st0" points="128.1 34.99 122.46 34.99 116.81 24.08 116.7 35.01 112.63 35.02 112.62 18.21 118.33 18.22 123.8 28.85 124.03 18.21 128.07 18.2 128.1 34.99"/>
      <path class="st0" d="M150.08,23.15c1.35,4.47.16,9.64-4.54,11.12-1.62.54-3.25.74-4.98.74l-6.12-.02v-16.75s4.45-.01,4.45-.01c4.63-.01,9.78.24,11.2,4.92ZM145.12,29.55c1.09-1.97,1.06-4.55-.34-6.36-.63-.82-1.82-1.46-2.79-1.47l-2.98-.04.03,9.98,3.17-.22c1.19-.08,2.31-.81,2.92-1.89Z"/>
      <path class="st0" d="M66.97,30.16c.03,3.47-2.97,4.86-6.26,4.84l-7.39-.03.02-16.77,5.45-.02c1.49,0,2.97-.08,4.37.31,1.95.41,3.23,1.82,3.37,3.65s-.69,3.45-2.68,4.25c2.04.6,3.09,1.77,3.11,3.77ZM60.86,24.56c.87-.33,1.22-1.04,1.08-1.81-.1-.55-.64-1.16-1.38-1.17l-2.64-.04-.04,3.24c.96.1,1.97.15,2.97-.22ZM62.4,29.69c-.04-.84-.64-1.59-1.61-1.65l-2.9-.16v3.86c2.45.15,4.61-.11,4.51-2.05Z"/>
      <path class="st0" d="M233.15,34.96h-4.81s-1.63-4.97-1.63-4.97c-.39-1.2-2-2.12-3.17-1.38l-.14,6.38-4.54-.02v-16.79s5.16-.02,5.16-.02c3.89-.01,8.45.07,8.35,4.44-.05,1.88-.97,3.44-2.96,4.09.63.41,1,.82,1.26,1.47l2.49,6.79ZM227.78,23.24c-.04-1.64-2.04-1.9-4.33-1.64l.03,3.58c2.38.11,4.35-.13,4.3-1.94Z"/>
      <path class="st0" d="M81.95,35.01l-1.54-4.73c-.48-1.47-1.77-2.19-3.44-1.79v6.52s-4.51,0-4.51,0v-16.79s9.55.09,9.55.09c2.1.02,3.67,1.98,3.9,3.69.29,2.13-.86,3.9-2.98,4.72.65.34,1.05.75,1.29,1.4l2.47,6.82-4.74.06ZM81.35,23.22c-.03-.88-.67-1.58-1.67-1.61l-2.72-.07.04,3.63c2.42.16,4.42-.07,4.35-1.95Z"/>
      <polygon class="st0" points="212.28 28 205.43 28.03 205.41 31.71 213.07 31.72 213.08 35 200.87 35.02 200.87 18.22 212.74 18.22 212.71 21.53 205.44 21.56 205.43 24.82 212.26 24.83 212.28 28"/>
      <polygon class="st0" points="194.29 28 187.44 28.03 187.42 31.71 194.94 31.72 194.94 35.01 182.82 35.01 182.83 18.23 194.69 18.23 194.7 21.54 187.45 21.56 187.44 24.82 194.28 24.83 194.29 28"/>
      <path class="st0" d="M101.99,31.46l-6.11-.06-1.47,3.59-4.56-.06,6.45-16.69,5.47.07,6.45,16.63-4.93.05-1.31-3.54ZM100.88,28.06l-1.94-6.04-2.05,6.13,3.99-.09Z"/>
    </g>
    <g>
      <path class="st0" d="M35.52,19.76c-.21,7.02-4.19,13.23-10.25,16.57-.72-.22-1.23-.5-1.64-.97,3.19-3.68,3.37-8.58,1.03-12.69l-3.11-4.77c-2.22-3.39-2.35-7.53-.41-11.11,1.01-1.76,2.11-3.48,3.98-4.7-2.25,4.8-2.61,7.88.16,12.32l2.96,4.47c1.79,2.71,2.26,5.67,1.63,8.96,2.27-2.68,2.9-5.81,2.47-9.18,1.15.2,2.03.54,3.18,1.1Z"/>
      <path class="st0" d="M38.87,34.19l-3.25-3.67c2.36-4.07,3.74-8.48,3.55-13.18-2.69-1.67-5.65-2.26-8.72-2.89-.87-.47-1.37-1.67-1.88-2.62,5.48.5,10.74,1.63,15.33,4.83,0,6.26-1.53,12.23-5.03,17.53Z"/>
      <path class="st0" d="M11.07,17.31c-.08,4.76,1.22,9.18,3.61,13.22l-3.29,3.66c-3.36-5.16-5.07-11.23-5.02-17.48,3.28-2.31,6.94-3.62,11.02-4.26l-.48,2.62c-2.02.53-3.85,1.14-5.84,2.25Z"/>
      <path class="st0" d="M34.88,39.1c-2.87,2.82-5.95,5.12-9.73,6.51-3.73-1.34-6.84-3.7-9.74-6.49l3.17-3.66c2.01,1.55,4.06,3.82,6.59,4.37,2.54-.6,4.47-2.79,6.48-4.29l3.23,3.55Z"/>
      <path class="st0" d="M17.37,18.77c2.6,5.76,8.07,8.95,5.4,16.11-4.81-3.6-7.78-9.02-8-15.04.83-.47,1.58-.83,2.61-1.07Z"/>
    </g>
  </g>
  <polygon class="st0" points="114.14 56.1 111.74 56.15 109.43 51.95 109.39 56.13 107.63 56.14 107.63 49.21 110.05 49.24 112.21 53.41 112.37 49.21 114.13 49.22 114.14 56.1"/>
  <path class="st0" d="M70.42,52.44c-1.13-.17-1.15,1.69-1.07,3.68h-1.83s-.03-2.85-.03-2.85c0-.43-.29-.81-.66-.85-1.01-.1-1.15,1.81-.98,3.72h-1.88s.03-5.13.03-5.13c.85-.13,1.45-.1,1.99.4,1.03-.85,2.46-.81,3.24.3.59-.71,1.17-.88,1.91-.87,2.29.02,1.74,2.38,1.8,5.28h-1.92s0-2.84,0-2.84c0-.46-.26-.79-.6-.84Z"/>
  <path class="st0" d="M96.02,58.06l.08-1.43c.69.23,1.15.36,1.79.36.79,0,1.55-.43,1.44-1.38-.84.8-1.97.74-2.8.33-.96-.48-1.27-1.55-1.21-2.65.05-.94.46-1.78,1.21-2.19.82-.45,1.77-.39,2.57.3.56-.49,1.15-.5,2.01-.38l-.02,5.56c0,1.47-2.75,2.51-5.07,1.49ZM98,54.7c1.01.17,1.38-.62,1.31-1.28s-.55-1.33-1.41-1.06c-.53.17-.66.81-.63,1.24.02.35.17,1,.73,1.1Z"/>
  <path class="st0" d="M140.38,55.71c-.95.93-2.43.84-3.26-.19-.91-1.13-.94-2.69-.06-3.84.79-1.04,2.16-1.2,3.31-.3.26-1.12.14-1.73.1-2.65h1.91s0,7.4,0,7.4c-.86.14-1.47.1-1.99-.42ZM139.5,54.83c.82-.03,1.02-.86.98-1.39s-.39-1.17-1.11-1.13-.97.79-.96,1.33c.01.51.27,1.22,1.1,1.19Z"/>
  <path class="st0" d="M80.18,51.68c.86,1.07.8,2.59.1,3.65-.76,1.13-2.17,1.32-3.25.53-.73.3-1.39.38-2.12.25v-7.37s1.82,0,1.82,0l.08,2.77c1.01-.97,2.45-.98,3.38.18ZM78.8,53.27c-.12-.75-.62-1.05-1.17-.96s-.87.55-.87,1.2c0,.53.16.94.59,1.21.31.2.81.21,1.11-.12.28-.29.43-.76.34-1.33Z"/>
  <path class="st0" d="M86.23,51.01h1.95s0,5.09,0,5.09c-.85.43-1.54-.27-1.99-.23-.58.08-1.23.7-2.05.45-.5-.15-1.42-.4-1.44-1.27l-.1-4.05h1.81s.02,2.76.02,2.76c0,.48.3.88.67.97.4.1,1.08-.23,1.09-.76l.06-2.96Z"/>
  <path class="st0" d="M126.76,56.35c-1.92.06-3.26-1.18-3.18-2.92.07-1.59,1.52-2.7,3.24-2.61,1.59.08,2.85,1.11,2.92,2.59.08,1.67-1.09,2.88-2.98,2.94ZM126.76,54.97c.83-.09,1.06-.97,1.03-1.53s-.38-1.25-1.13-1.24c-.85.01-1.17.79-1.14,1.44.03.59.36,1.43,1.24,1.34Z"/>
  <path class="st0" d="M119.1,56.34c-1.84.02-3.13-1.1-3.16-2.7s1.31-2.81,3.05-2.82,3.06,1.03,3.12,2.59c.07,1.68-1.11,2.92-3.01,2.94ZM120.17,53.63c.02-.84-.49-1.42-1.11-1.44-.72-.03-1.11.56-1.14,1.33-.04.82.35,1.47,1.17,1.48.55,0,1.06-.52,1.08-1.36Z"/>
  <polygon class="st0" points="57.98 54.75 58 56.15 53.19 56.15 53.19 49.21 55.14 49.22 55.14 54.74 57.98 54.75"/>
  <path class="st0" d="M92.09,56.13l-1.98.02.03-5.13c.87-.13,1.44-.11,2,.39.43-.47,1.29-.86,1.81-.48.23.36.07,1.13-.02,1.49-.49.01-.92,0-1.32.22-.28.15-.52.62-.52,1.09l.02,2.39Z"/>
  <path class="st0" d="M135.17,52.41c-.31.09-.96,0-1.3.26-.25.2-.48.61-.49,1.11l-.02,2.36h-1.86s0-5.13,0-5.13l2.09.1c.6.03,1.22-.47,1.78-.15-.05.41.05.98-.21,1.45Z"/>
  <rect class="st0" x="59.86" y="50.99" width="1.93" height="5.16"/>
  <rect class="st0" x="102.91" y="52.8" width="2.82" height="1.38"/>
  <rect class="st0" x="59.86" y="48.84" width="1.93" height="1.39"/>
</svg>