<?xml version="1.0" encoding="UTF-8"?>
<svg id="Laag_1" xmlns="http://www.w3.org/2000/svg" version="1.1" viewBox="0 0 463.44 706.9">
  <!-- Generator: Adobe Illustrator 29.6.1, SVG Export Plug-In . SVG Version: 2.1.1 Build 9)  -->
  <defs>
    <style>
      .st0 {
        fill: #fdfdfe;
      }

      .st1 {
        fill: #4b70a6;
      }

      .st1, .st2, .st3, .st4, .st5 {
        stroke: #fff;
        stroke-miterlimit: 10;
      }

      .st1, .st2, .st5 {
        stroke-width: 3px;
      }

      .st2, .st3 {
        fill: #b6463d;
      }

      .st6 {
        opacity: .37;
      }

      .st6, .st7 {
        fill: #22274e;
      }

      .st7 {
        opacity: .63;
      }

      .st8 {
        fill: #141924;
      }

      .st9, .st4 {
        fill: #1d1d1b;
      }

      .st3 {
        stroke-width: 2px;
      }

      .st10 {
        display: none;
        fill: #626161;
      }

      .st11 {
        fill: #4c7f52;
      }

      .st12 {
        fill: #fff;
      }

      .st4 {
        stroke-width: 4px;
      }

      .st13 {
        fill: #3c5c8c;
      }

      .st5 {
        fill: #d9b84e;
      }

      .st14 {
        fill: #b5120f;
        opacity: .48;
      }
    </style>
  </defs>
  <path class="st10" d="M-2330.23,1478.48l-3.98,1.52c-14.21,4.82-27.66-4.6-41.78-4.56-13.13.03-25.1,7.19-37.95,8.87-10.24,1.34-20.83-1.68-29.58-6.88,4.01.8,7.93,2.04,12.06,2.46,22.66,2.27,37.62-14.46,61.67-9.25,13.05,2.83,25.76,9.36,39.55,7.85Z"/>
  <path class="st0" d="M103.17,385.48c.23.07.61-.05.89,0,.12.36-.43.38-.44.44l-.45-.45Z"/>
  <path class="st4" d="M377.45,214.11c-3.91.57-10.88,2.91-18,5.7,1.56,2.26,3.22,4.67,4.96,7.18.86-.21,1.75-.35,2.65-.29.22.95-.52.97-.99,1.4-.18.17-.37.34-.55.5.67.98,1.35,1.97,2.04,2.97.54.78,1.08,1.57,1.63,2.37,3.25-4.26,6.29-8.66,8.81-13.37,1.17-2.18,4.95-7.25-.55-6.46ZM373.45,225.24c1-1.14,1.98-2.28,2.93-3.45-.94,1.17-1.93,2.31-2.93,3.45Z"/>
  <path class="st4" d="M398.51,236.98c-.25,2.99-2.83,9.97-3.89,13.2-1.69,5.12-3.5,10.33-5.54,15.44-2.15-3.24-4.35-6.54-6.57-9.84,1.4-2.26,2.6-4.64,3.34-7.15-.76-.15-1.07.4-1.53.87-1.05,1.09-2.13,2.62-3.22,4.19-.97-1.44-1.94-2.88-2.91-4.32-.31-.45-.61-.89-.91-1.34l13.39-10.33c1.49-1.26,6.07-5.86,7.65-2.63.33.67.25,1.21.19,1.91Z"/>
  <path class="st1" d="M113.68,494.81h0c-.09.33-.18.66-.28.98-.46,1.61-.93,3.22-1.41,4.83-1.42,4.83-2.91,9.66-4.39,14.48-.68,2.25-1.37,4.5-2.04,6.74-14.33-3.57-29.64-3.61-44.1-.78-1.85-.42-17.62-24.98-16.69-26.23,9.21-4.22,19.07-7.78,29.35-8.14,13.68-.5,26.73,4.14,39.56,8.12Z"/>
  <path class="st5" d="M98.14,363.76c-1.2,1.37-1.5,1.2-2.71,2.03-5.6,3.81-12.7,7.04-18.93,9.78-14.83,6.47-51.46,21.24-66.43,19.91-4.63-.41-6.27-3.61-1.11-5.37,4.44-4.98,15.99-9.45,22.3-12.16,15.4-6.64,33.48-13.12,49.86-16.68,3.67-.79,15.78-3.47,18.7-2.92,3.48.64,1.22,5.2-1.68,5.41Z"/>
  <path class="st8" d="M158.26,482.66c-.56-.39-1.14-1.54-1.92-1.97.6.28,2.03.07,1.92,1.97Z"/>
  <path class="st5" d="M120.44,441.45c-.67,3.44-1.85,10.75-3.38,13.51-1.53,2.75-3.78,2.95-4.74,6.76-1.05,4.18,1.4,4.82,1.32,7.69-.08,3.04-2.54,7.31-2.67,10.54-3.83-.83-7.65-1.9-11.48-2.69-13.47-2.77-26.02-4.28-39.86-3.38-5.95.39-11.77,2.04-17.58,3.1l-16.2-38.91c-.59-.34-1.67-.27-2.67-1.02-3.77-2.86-1.14-5.59-1.06-8.76.1-3.9-4.35-12.22-5.72-16.56l-4.06-10.14c12.04-.3,24-4.33,35.3-8.27,15.57-5.43,34.56-12.65,48.68-20.9,1.59-.94,4.31-3.38,5.6-3.88,1.18-.43.82.26,1.09.81,1.9,3.84,3.12,9.74,4.58,14.01,1.16,3.36,1.8,7.19,3.47,10.38,1.13,2.17,3.9,4.22,4.37,5.8.84,2.79-1.54,5.29-.96,7.62,1.45,5.78,6.8,13.94,7.83,20.61.59,3.9-1.1,9.63-1.86,13.68Z"/>
  <g>
    <path class="st12" d="M106.84,444.24c-1.19,1.77-2.55,3.45-3.91,5.08-4.62,3.69-9.83,5.53-15.84,4.69-3.54-.5-3.8-3.63-5.78,2.05-4.36,4.47-8.29,7.79-15.09,7.38-1.23-.07-9.77-1.46-7.86-4,.12-.16,2.64,1.17,3.77,1.3,4.51.52,6.59-.32,9.73-3.32,7.16-6.84,3.45-13.78.68-21.62,1.56-.17,3.52.34,4.98-.11.79-.24,1.05-2.18,2.67-2.18.32,0,.68.09,1.12.26-.28,1.87,1.08,6.04,2,7.79.29.55.62,1.07.97,1.57,4.08,5.81,11.71,7.72,17.62,2.78,2.27-1.91,2.45-5.3,4.95-1.68Z"/>
    <path class="st12" d="M108.33,437.16c-.05.1-.56.61-.67.67-1.28-1.2-.9-3.3-1.35-4.73-.56-1.73-1.14-2.58-2.03-4.05-5.24-8.68-16.44-8.08-21.91.05-1.14,1.7-.27,3.45-2.36,3.45-.29,0-.64-.04-1.06-.11-.64-.11-.36-2.88-.95-3.68-.16-.22-4.99-.83-3.45-3.09.13-.22,3.11-1.19,4.36-2.73,1.66-2.05,2.58-4.46,2.81-6.94v-.05c.34-3.69-.8-7.53-3.12-10.55-2.04-2.66-3.52-3.44-6.71-4.44-1.69-.52-4.64.56-4.09-1.64,10.26-1.35,21.41,6.2,21.62,16.88,5.12-.83,10.95,2.2,14.18,6.08h0c3.09,3.72,5.24,10,4.73,14.87Z"/>
    <path class="st12" d="M71.18,431.46c-.12,1.45.87,2.92.21,4.14-.17.3-.45.6-.89.87-.15-.1-.47.08-.68,0h-.01c-10.35-7.28-20.23,2.89-18.89,14.19.27,2.26,1.68,3.92,2.02,6.08-1.83-.18-3.23-4.61-4.05-4.73-2.14-6.83-1.87-13.17,1.35-19.59.85-.91,3.73-2.66,3.95-3.82.15-.77-2.27-4.75-2.54-6.72-.78-5.69-.18-10.27,3.34-14.79.69-.9,6.7-7.35,6.73-3.73-8.43,4.39-7.06,14.96-1.36,20.53,2.93,2.87,7.01,4.41,11.49,3.11,1.07,2-.57,3.26-.67,4.43Z"/>
    <path class="st12" d="M80.65,415.88c-.81,5.47-3.1,2.73-7.1,3.03-1.54.11-3.03.7-4.4,1.36-1.91.9-3.46,2.39-4.73,4.05-.6-.47-1.91-.21-2.52-.8-.33-.32-.46-.87-.19-1.9,3.11-2.2,2.22-3.62,7.44-5.41,4.35-1.48,6.97-1.58,11.49-.33Z"/>
    <path class="st12" d="M88.74,443.23c-.57.27-1.41,1.24-1.69,1.24-.34-.01-1.35-1-1.94-1.88-.27-.4-.45-.79-.45-1.04.01-.87,2.27-3.06,2.88-4.58,1.49-3.71.95-6.91-.15-10.62,1.11-.46,2.07-1.37,3.37-1.35,2.17,6.35,2.07,12.71-2.02,18.24Z"/>
    <path class="st12" d="M73.45,448.58c-.74.22-5.37-1.15-6.34-1.62-3.74-1.79-6.15-6.2-8.77-9.14v-.67c1.75-.75,2.03-.96,4.06-1.35.78,3.68,4.74,6.77,8.1,8.1.84.33,1.83.39,2.7.67h.68c.09.91,1.77,3.37-.43,4Z"/>
  </g>
  <path class="st1" d="M427.8,489.74c-2.72,6.45-10.52,17.69-14.7,23.81-3.95,5.77-8.41,11.22-12.51,16.87-19.04,5.84-40.57,6.59-60.28,2.94-1.51-.27-3.01-.58-4.5-.91-20.52-4.58-37.43-17.31-58.51-21.22-13.64-2.53-25.49-2.08-36.82.16-2.42.47-4.82,1.03-7.2,1.67-.65.16-1.29.34-1.94.52-1.26.35-2.51.73-3.77,1.11h-.01c-3.33,1.04-6.65,2.18-10.01,3.41-6.92,2.55-13.97,5.46-21.46,8.46l.49-1.76,7.09-25.28.25-.92,1.18-4.19.45-1.61c.06,1.09-.65,2.97.93,2.62,4.31-.97,10.38-4.44,14.93-6.01,12.43-4.3,22.9-6.77,32.43-7.84,25.76-2.92,44.64,4.34,76.68,12.9,10.36,2.78,21.12,5.06,31.95,6.25,6.52.72,13.06,1.05,19.55.85,15.89-.48,31.42-4.12,45.45-12.83.45-.13.49.61.33,1Z"/>
  <path class="st1" d="M385.48,543.77c.49,2.33-22.3,21.04-25.73,23.58-71.12,52.83-164.01,56.11-239.03,8.78-17.89-11.29-34.17-25.15-48-41.15-.03-.94,7.9-2.73,9.2-2.94,25.86-4.21,46.12,11.79,70.85,14.75,32.33,3.88,55.3-13.67,85.44-19.92,3.94-.82,7.65-1.43,11.17-1.87,33.09-4.07,49.22,7.93,80.97,18.42.95.32,1.91.63,2.89.94,10.82,3.44,26.74,2.6,38.96.98,3.61-.48,8-2.01,11.24-2.31,1.06-.1,1.24-.43,2.04.74Z"/>
  <path class="st6" d="M361.75,502.21c-10.83-1.19-21.28-3.53-31.64-6.31-32.04-8.56-50.06-16.04-75.82-13.12-9.53,1.07-19.59,3.59-32.02,7.89-4.55,1.57-11.5,5.31-15.81,6.28-1.58.35-.9,3.1-.02,3.35,1.41.4,3.15.06,4.82.54,6.39,1.8,2.69,4.38,5.85,8.72l-.29,1.18c-1.43-.4-3.6-.53-3.77,1.61l4.38,1.04s10.68.28,10.86-.45l2.55-.79,1.82-.37c.12-.3.64-.36.76-.63,2.94-7,3.96-4.41,6.42-1.26,14.91-3.21,24.2-2.66,37.84-.13,21.08,3.91,37.75,16.74,58.27,21.32,1.49.33,3.25.86,4.76,1.13.42-1.15.46-1.08,1.13-1.99,2.25-3.06,7.14-1.71,7.55-7.71l3.03-.03c-1.32-8.45,5.6-8.83,11.13-12.42,2.03-1.33,2.91-3.39,5.34-4.63,2.28-1.17,10.97-1.48,11.66-2.2.04-.04.03-.02.07-.07-6.49.2-12.37-.22-18.89-.94Z"/>
  <path class="st7" d="M286.83,558.83s-.02.03-.03.05c-.12.18-.23.38-.35.58-.21-.4-.42-.7-.63-.88.32.08.66.17,1.01.25Z"/>
  <path class="st7" d="M286.83,558.83s-.02.03-.03.05c-.33-.11-.66-.2-.98-.3.32.08.66.17,1.01.25Z"/>
  <path class="st6" d="M330.79,545.48c-4.09,2.39-8.72,4.5-11.53,7.92-2.4,2.92-3.47,5.97-4.78,9.49l-3.16-.74c-.11.39-.18.6-.21.71,1.2.05,2.33.07,3.37.03.13,2.61-5.18,17.46-5.8,19.15-.77,2.09-5,2.44-3.49,7.17l-8.07.5c-1.01-3.2-3.62-4.81-5.39-7.62-1.15-1.82-2.99-18.22-5.28-22.63.12-.2.23-.4.35-.58,0-.02.02-.03.03-.05-.35-.08-.69-.17-1.01-.25.21.18.42.48.63.88-3.47,5.95-9.7,20.66-11.92,22.1-1.96,1.27-9.82.99-10.18,2.15.34,5.07,5.26,7.27,6.95,11.86-.36,2.17-6.91,3.65-8.97,4-4.04-1.49-.94-8.06-2.61-9.9l-11.29-2.82-3.12-16.75c-4.53.18-4.66,4.77-6.02,8-.33.78-1.01,3.11-2.1,2.66.42-2.22-2.02-4.86-1.71-6.81.3-1.88,2.01-2.56,2.44-3.71.64-1.73,11.16-19.94,9.9-21.22-.49-4.24-5.24-1.71-10.77-1.89-1.91-2.56.95-4.3,1.65-6.19.45-1.2-.04-2.6.43-3.75,1.13-2.78,4.27-2.86,6.62-3.69,1.17-.42,1.48-2.72,4.5-.92-.59-1.9-.88-3.62-.43-5.52,33.09-4.07,49.22,7.93,80.97,18.42Z"/>
  <path class="st7" d="M286.83,558.83s-.02.03-.03.05c-.12.18-.23.38-.35.58-.21-.4-.42-.7-.63-.88.32.08.66.17,1.01.25Z"/>
  <g>
    <g>
      <path class="st5" d="M216.05,444.85c-14.78.96-44.26-5.67-64.83-12.11-5.47-1.72-10.32-3.42-14.08-4.96-2.93-1.19-13.39-5.25-7.64-9.35,2.07-1.48,12.36-.27,15.52.11,2.27.3,5.83.85,7.83,1.97.24.03.45-.02.68,0,1.43.14,2.86.31,4.28.5,8.79,1.17,17.45,3.15,26.13,5.58,7.65,2.14,15.6,4.46,22.96,7.43,1.9.76,13.33,5.87,13.85,6.75,2.21,3.72-1.78,3.9-4.7,4.08Z"/>
      <path class="st5" d="M210.95,471.17c.02-.22-.03-.45,0-.67,2.87-5.7,3.58-12.74,5.4-18.92-11.39.48-22.62-1.95-33.65-4.5-11.18-2.6-22.76-5.67-33.97-9.43-6.82-2.29-13.5-4.83-19.87-7.67-.83,2.13-1.19,4.51-1.67,6.74-.55,2.45-.84,5-1.36,7.44-.77,3.56-1.43,9.49-2.65,12.54-.76,1.87-4.5,5.35-4.64,6.12-.26,1.25,1.87,4.45,1.83,6.59-.11,6-3.75,13.68-5.35,19.33-.53,1.9-.81,4.17-1.34,6.07h0c-.09.33-.18.66-.28.98-.46,1.61-.93,3.22-1.41,4.83-1.43,4.82-2.92,9.66-4.39,14.48-.68,2.25-1.37,4.5-2.04,6.74,2.04.51,5.19,2.03,7.44,2.71,23.17,6.97,42.66,14.41,67.55,8.1,6.02-1.53,10.14-3.91,15.53-6.08l.5-1.77,7.09-25.28.25-.92,1.18-4.19.45-1.61c-.03-.45-.04-.92,0-1.36.56-8.19,4.96-4.72,5.95-7.9.99-3.2-1.06-4.61-1.2-6.65-.06-.9.52-4.43.65-5.72ZM156.46,480.75c.16.05.37.09.59.14.15.04.29.08.43.15.05.02.11.05.16.08.05.03.1.06.14.1.05.04.09.08.14.13.04.04.09.09.12.15.16.26.25.62.22,1.16h0s-.01,0-.01,0c-.07-.05-.13-.11-.2-.18-.02-.01-.03-.03-.05-.05l-.12-.12c-.21-.24-.44-.55-.68-.84-.1-.12-.21-.23-.31-.34-.08-.08-.17-.16-.26-.23-.01-.01-.02-.02-.03-.02-.05-.04-.1-.08-.15-.11-.04-.03-.07-.05-.11-.07.03.01.07.03.12.05Z"/>
    </g>
    <g>
      <path class="st12" d="M172.38,462.01c-10.95-8.28-23.9-2.52-26.24,10.52-.11.6-.19,1.2-.25,1.82-.02.17-.03.35-.04.51-.08,1.59.24,2.74.77,3.59,1.07,1.72,3,2.19,4.09,2.49h.04l.02.02h.03c.42.11.69.17.76.31.01.03.01.11-.01.2-.26,1.06-2.28,5.53-.92,7.45,1.28,1.8,8.38,4.53,11.46,4.25.44-.04.8-.15,1.05-.33.41-.3.69-.82.93-1.44.58-1.55.81-3.7,1.81-4.43,1.76-1.24,4.33,2.71,8.08-1.36.92-1.01,1.7-2.09,2.34-3.25,3.74-6.74,2.54-15.45-3.92-20.35ZM155.96,478.18c-5.71.88-7.56-2.26-6.96-5.28.59-2.98,3.57-5.86,7.58-4.72,5.35,1.48,4.64,9.19-.61,10h-.01ZM161.22,483.78c-4.01.54-4.7-.98-4.02-2.31.07-.14.17-.29.28-.43.87-1.16,2.72-1.93,4.03-.62.08.07.15.14.21.23.1.13.27,2.81-.5,3.13ZM173.42,481.8c-.42.8-1.07,1.46-1.96,1.9-2.28,1.12-5.67-.73-7.32-3.31-1.47-2.32-1.53-5.23,1.89-7.15,5.73-3.24,9.54,4.42,7.39,8.56Z"/>
      <path class="st12" d="M143.74,483.68c3.41,2.19,7.73,9.87,11.13,11.29.81.34,15.5-1.46,16.38-1.84,1.48-.65,1.25-4.15,4.71-3.51,3.86.71,2.08,2.4,2.77,4.24.38,1,1.51,1.73,1.66,2.31,1.19,4.46-5.8,1.09-8.32.91-3.87-.28-9.13,2.23-13.16,1.81.51,1.47,3.08,4.99,4.12,5.8,1.41,1.09,7.09.98,6.69,4.2-.16,1.28-2.76,1.41-3.98,2.08-1.43.79-1.94,4.13-5.33.59-.96-1-.43-3.25-1.31-4.97-.58-1.15-4.93-5.89-6.03-6.17-.43-.11-8.32.76-8.72.93-1.57.69-1.69,5.32-6.18,3.05-2.1-1.06-.7-2.49-1.16-3.54-.45-1.04-3.35-3.42-1.4-4.93.68-.52,11.85,3.28,14.29-.13-3.73-1.69-6.39-7.59-9.28-9.51-1.78-1.18-6.43-2.08-6.84-3.52-1.17-4.13,2.88-2.55,3.86-3.15.59-.36.91-1.92,1.73-2.17,1.19-.37,3.59,4.98,4.36,6.22Z"/>
    </g>
  </g>
  <path class="st2" d="M273.46,437.79c-.36.45-.7.9-1.01,1.36M421.16,314.67c-3.53-6.45-7.61-13.54-12.27-19.14-4.53-7.77-11.04-17.96-18.17-28.73-2.15-3.24-4.35-6.54-6.57-9.84-.46-.7-.93-1.39-1.41-2.09-.97-1.44-1.94-2.88-2.91-4.32-.31-.45-.61-.89-.91-1.34-3.05-4.49-6.08-8.92-8.98-13.15-.55-.8-1.09-1.59-1.63-2.37-.69-1-1.37-1.99-2.04-2.97-.38-.54-.75-1.08-1.11-1.61-1.74-2.51-3.4-4.92-4.96-7.18-1.63-2.36-3.16-4.56-4.55-6.57-12.73-18.38-26.2-37.03-39.28-55.85-.09-.13-.18-.25-.26-.38-.07-.1-.14-.2-.21-.3-11.3-16.28-22.3-32.68-32.27-49.13-12.46-20.55-21.46-40.05-18.6-61.84.91-7.01,3.06-14.28,6.72-21.87-12.47,6.38-24.69,13.66-36.29,21.87-31.73,22.45-58.66,51.88-72.31,88.75-4.53,12.27-7.64,25.48-9.51,38.45-1.56,10.77-1.74,36.13-5.63,44.36-2.18,4.62-8.15,8.07-12.43,3.87-4.48-4.41-1.16-17.49-3-23.69-2.05-2.11-8.48,7.24-9.73,8.85-16.95,21.75-46.65,69.75-61.19,93.17-10.73,21.78-23.14,43.35-27.69,67.54,19-5.66,41.19-16.89,61.13-17.55,3.76-.13,8.81.31,11.42,3.05,1.08,1.13,1.76,2.66,1.75,4.7-.03,8.27,4.32,22.81,7.78,30.74,1.78,4.13,6.19,6.11,6.05,11.17-.04,1.56-.99,2.93-.85,4.57.14,1.68,1.75,3.99,1.92,5.86,8.2-1.16,16.73-.88,24.95.03.27-.18,3.25.4,8.28,1.56,2.32.54,5.08,1.21,8.21,1.98.54.13,1.1.27,1.66.41,1.83.49,3.79,1.28,3.61,1.28-.02,0-.25-.05-.34-.07-1.6-.34,1.18.48,6.87,1.94.67.17,1.37.35,2.09.53,1.41.35,2.93.74,4.54,1.14,1.43.37,2.92.74,4.49,1.13.11.05.23.09.35.14,1.13.47,2.42,1,3.83,1.58.04.02.09.04.14.06.16.07.32.13.48.2.42.18.86.36,1.3.54,1.27.53,2.62,1.09,4.03,1.68,3.33,1.41,7.01,2.96,10.79,4.56,1.08.45,2.17.91,3.27,1.38,1.22.52,2.44,1.04,3.66,1.55.85.36,13.04,5.52,17.41,7.34.59.24,1.17.49,1.74.72,1.74.73,3.32,1.38,4.7,1.94,2.9,1.18,4.91,1.96,5.58,2.13l5.6-4.46,3.06-2.44c1.67.43,5.33,1.26,5.5,1.25,1.09-.12,2.18-.22,3.25-.3.13,0,.25-.02.37-.03.17-.01,2.8-.12,2.8-.12.01-.01,2.93-.18,4.36-.19.91-.03,1.81-.03,2.7-.01,3.12.03,6.18.18,9.22.45h.01c.54.05,1.08.1,1.63.15,16.79,1.71,33.24,6.69,55.76,12.36.78.2,1.57.39,2.37.59,11.14,2.77,22.72,5.06,34.37,6.25.47.05.95.1,1.42.14,21.24,2.02,42.61.35,61.8-8.64,2.37-8.34,4.41-16.22,4.66-17.76,7.28-43.25-1.87-80.29-22.53-118.02ZM281.83,437.96l1.48,1.79c-.55-.05-1.09-.1-1.63-.15h-.01c-3.04-.27-6.1-.42-9.22-.45"/>
  <path class="st14" d="M383.29,333.56c.51-2.03,2.04-3.64,2.34-5.75l-8.53.4c-.31-1.76.61-4.33.14-5.84-.26-.83-1.63-1.42-2.06-2.82-1.41-4.54,1.83-4.93,2.61-7.6,1.81-6.18-1.84-11.02-2.01-15.79-.09-2.69,3.62,1.12,3.73-1.57.14-3.35-2.85-2.12-3.44-3.48-.72-1.68.21-5.97-.03-7.97-.24-1.93-1.3-7.35-2.03-8.93-1.18-2.56-4.14-4.5-5.1-7.76-1.29-4.43.94-7.8.37-11.04-.29-1.65-2.04-1.14-2.37-2.09-.44-1.23.46-3.22.08-4.33-.58-1.73-2.44-3.41-4.75-5.05-.05-.03-.09-.07-.14-.1h-.01s-.08-.06-.12-.09h0c-4.07-2.85-9.42-5.56-11.65-8.07-1.37-1.53-2.47-3.61-3.51-5.78-1.76-3.7-3.32-7.67-5.62-9.71-2.66-2.37-6.71-3.46-9.64-5.7-4-3.07-5.37-8.05-9.07-10.79-3.12-2.3-12.73-5.22-13.74-7.97-.2-.52-.8-10.62-.69-11.17.33-1.73,2.2-2.4,2.85-4.27,1.85-5.32-.06-13.51,3.61-19.2.12-.18.24-.36.37-.54-.14-.09-.29-.18-.43-.26-.12-.07-.25-.13-.37-.19-.11-.05-.21-.1-.32-.14-3.39-1.43-5.63,1.28-8.57.55-1.24-.31-2.39-1.31-3.79-1.66-7.89-1.96-15.99-3.32-23.11-7.4-.45,2.12-.23,2.91-2.58,1.89-1.04-.69-1.41-12.95-1.94-15.08-.51-2-2.02-3.3-2.6-5.21-1.02-3.37-1.91-8.44-1.07-11.53l1.82,4.66,1.09.19,6.33-2.97-8.28-6.53c-5.24-.25-10.93-4.65-15.23-5.59-4.44-.96-10.68,1.99-14.06,1.51-2.51-.36-3.28-2.6-4.2-2.67-1.21-.09-5.24,4.38-8.41.84-.98-1.09,1.08-3.52-1.62-3.41-.08,3.15-2.35,6.18-5.1,3.41-.4-.41-1.37-8.05-3.12-10.99-1.04-1.76-8.18-9.87-9.59-10.2-1.69-.39-8.05,1.72-8.88,3.29-1.09,2.03,1.06,5.04,1.28,7.12.14,1.36-.93,3.21-.51,4.36.24.66,3.84,2.17,5.37,4.22,3.82,5.08,3.21,14.97,9.12,18.21,6.9,3.79,22.22-1.55,27.09,5,.97,1.31,1.18,6.4,1.95,8.64,1.55,4.51,4.64,8.86,5.58,13.56.9,4.49-.29,11.68,1.46,15.37,2.81,5.91,10.68,7.09,15.9,10.06,2.91,1.66,9.44,6.77,11.43,9.36,3.76,4.91,1.51,10.11,3.47,14.84,1.23,2.96,5.49,5.42,6.82,8.08,1.59,3.17.34,7.34,1.32,10.71.79,2.71,4.51,5.37,2.79,8.26-1.06,1.78-4.39.66-4.22,3.76-1.9,1.11-8.92-10.7-14.95-8.83-1.51.47-7.08,5.58-9.01,6.68-1.38.79-3.62,1.9-6.27,3.11-1.14.53-2.36,1.07-3.61,1.61-.93.4-1.89.8-2.85,1.18-.04.03-.09.05-.14.07h-.01c-1.52.61-3.04,1.21-4.51,1.74h-.01c-3.84,1.4-7.32,2.43-9.36,2.52-.09.01-.18.01-.26.01-3.28.02-4.59-1.91-7.39-2.29-1.82-.24-4.73.69-7.2.5-2-.16-3.98-.51-5.94-.88h-.01c-2.06-.39-4.08-.8-6.03-1.02-.09-.01-.18-.02-.26-.05h-.01c-.82-.17-1.13-.54-1.22.96-.03.62.28,1.8.74,3.19.86,2.63,2.22,6.01,2.65,7.64,1.46,5.56,1.3,6.31,3.58,12.06,3.85,9.67,7.4,19.95,10.69,30.17t0,.02c1.84,5.73,3.61,11.45,5.31,17.03.5,1.63.16,4.32.73,5.33.31.54,1.15,1.37,2.25,2.36,2.67,2.41,6.85,5.71,8.46,7.77.31.4.58.76.79,1.08.76,1.05,1.14,1.76,1.56,2.44.54.83,1.15,1.63,2.61,2.92.19.17.36.34.51.52.53.61.89,1.29,1.18,1.96,1.08,2.46,1.32,4.86,6.27,3.95l-2.04,2.89.72,1.18,3.23,5.33,4.8,7.9c-2.54,2.22-4.79,4.72-6.95,7.32-1.05,1.26-2.08,2.55-3.1,3.85-.5.63-1.01,1.27-1.5,1.9-3.92,4.93-7.93,9.77-13.18,13.37-3.59,1.88-7.3,3.67-11.09,5.39-1.11.5-2.23,1-3.36,1.49-3.11,1.37-6.27,2.7-9.46,4.01-3.59,1.47-7.22,2.92-10.85,4.37-2.51.99-5.02,1.99-7.52,2.99-4.16,1.67-8.29,3.35-12.36,5.08-.8.33-1.6.68-2.39,1.02-6.2,2.69-12.01,4.27-17.69,7.35-.08.04,12.01,2.89,23.52,6.48,9.71,3.02,18.75,8.04,20.48,8.77,1.08.45,33.12,14.67,34.61,14.58,3.53-.23,9.32-6.77,9.32-6.77,1.67.43,29.59,1.05,30.14,1.1,16.79,1.71,33.26,6.8,55.78,12.47l-5.41-8.4.18-1.08c3.34-.83,6.86-4.01,10.01-7.96,4.29-5.36,7.92-12.15,9.54-16.4,2.7-7.11,3.75-9.63,7.07-16.37,3.75-7.65,5.24-16.28,7.73-24.38l9.6-3.05c-3.08-6.03,7.64-11.35,10.49-16.41,3.2-5.69-7.04-14.76-5.01-22.82Z"/>
  <path class="st11" d="M398.66,234.42c-1.58-3.23-6.16,1.37-7.65,2.63-4.27,3.59-8.38,7.57-12.48,11.67-7.12,7.13-14.18,14.64-21.86,21.12-1.69,1.42-11.94,8.93-12.26,9.64-.6,1.33,2.02,5.21,2.32,6.87.27,1.44-.22,3.28.33,4.48.31.68,2.75,2.99,3.46,3.98,1.8,2.56,6.33,9.4,6.81,12.21,16.06-9.3,25.36-25.23,32.09-42.05,2.04-5.11,3.85-10.32,5.54-15.44,1.06-3.23,3.64-10.21,3.89-13.2.06-.7.14-1.24-.19-1.91ZM382.75,255.28c-.17.28-.35.57-.54.85-.04.08-.09.16-.15.24-.12.19-.24.38-.37.56-.69,1.03-1.41,2.03-2.13,3-4.73,6.39-10.93,12.92-17.28,17.71-1.93,1.46-7.51,5.6-9.44,6.3-1.66.6-4.05.8-4.25-1.4,11.56-6.03,21.42-15.14,29.72-25.17,1.03-1.24,2.08-2.8,3.13-4.33.15-.22.3-.43.45-.65.25-.35.5-.7.75-1.04.3-.43.61-.84.92-1.23.23-.29.46-.57.68-.82.14-.16.28-.31.42-.45.46-.47.77-1.02,1.53-.87-.08.27-.17.54-.26.81-.04.15-.1.3-.16.45-.04.12-.08.24-.12.35-.14.37-.29.73-.45,1.09-.1.24-.2.48-.32.71-.32.71-.68,1.4-1.05,2.09-.32.56-.64,1.11-.98,1.65-.03.05-.06.1-.1.15Z"/>
  <path class="st11" d="M376.9,214.4c-3.91.57-10.88,2.91-18,5.7-8.31,3.26-16.82,7.14-20.94,9.6-14.88,8.85-19.98,18-28.3,32.27l-.44,2.19c3.21.51,7.06,1.57,10.05,2.85,2.24.96,5.1,3.52,6.98,3.96,1.69.39,3.34.04,5.01.23,2.18.25,4.25,1.68,6.56.35,1.35-.78,2.44-5.48,3.25-7.25,5.86-12.71,16.27-22.4,25.94-32.44,3.22-3.34,6.35-6.71,9.21-10.25.18-.22.95-1.68,1.23-.75,1.17-2.18,4.95-7.25-.55-6.46ZM356.53,236.27c-.39.33-.78.67-1.16,1-1.25,1.07-2.47,2.15-3.68,3.26-.42.38-.83.77-1.24,1.16-.35.33-.7.66-1.04,1-.19.18-.37.36-.56.55-.32.31-.63.63-.94.95s-.62.64-.93.97c-.31.33-.62.66-.93,1-1.84,2.02-3.65,4.24-5.43,6.75-2.09,2.95-7.37,13.09-9.99,14.07-.58.22-1.1.34-1.72.24-1.19-1.18,6.5-12.67,7.7-14.38,4.59-6.55,18.66-22.98,25.97-25.2.42-.13.85-.25,1.28-.36.15-.04.3-.07.44-.1.26-.06.53-.11.8-.14.14-.02.28-.03.42-.04.09-.01.19-.01.28-.01.07-.01.14-.01.21-.01.15,0,.31,0,.46.01h.04c.22.95-.52.97-.99,1.4-.18.17-.37.34-.55.5-2.92,2.68-5.73,5.04-8.44,7.38Z"/>
  <path class="st0" d="M302.23,261.97v2.18c1.07-.56,2.14-.01,2.62,0-3.92,1-8.16,3.57-8.27,8.14-.04,1.78,1.57,2.75,1.06,4.08-6.16,9.45-9.88,22.39-16.23,31.48-1.45,2.08-2.03,3.74-4.87,2.76-3.79-1.3-1.65-4.27-1.43-7.32.32-4.59.66-14.07-.47-18.33-.59-2.22-2.29-1.29-2.59-1.57-.34-.31,3.1-7.15,3.51-8.52,2.6-8.79,1.38-16.88-2.19-25.15.14-.7,1.37.07,1.73.23,8.35,3.74,16.43,8.24,24.37,12.8.92-.4,1.86-.53,2.77-.79Z"/>
  <path class="st0" d="M258.26,393.55l-.2,44.38v3.36c-2.84.13-4.76.53-7.44.87-.17.02-.34.05-.52.07-.31.05-.63.11-.95.16-.06.01-.11.02-.17.02-.28.05-.55.1-.83.13-.05,0-.09.02-.14.02-.08.02-.17.03-.26.03-.1.02-.2.03-.3.03-.32.04-1.56,1.13-1.88,1.13-.15,0-.17.11-.32.1-.08,0-.53.1-.6.1-.13-.01-.4-.05-.53-.07-.13-.02.05.19-.08.17-.06-.01-.71-.16-.77-.17-.14-.03.23-.26,1.19-1.47-1.22-5.64-.65-11.71-.83-17.54-.26-8.39-.76-16.88-.45-25.34,2.23-3.13,4.93-5.81,6.41-9.44,1.6.17,8.44,2.09,8.66,3.46Z"/>
  <path class="st0" d="M234.87,412.64v27.59c-8.48-3.5-21.57-9.08-32.67-13.77.92-.01,2.53.76,3.59.83,4.42.3,6.94.08,10.49-2.63,1.1-.84,1.96-2.26,3.13-2.99,1.61-.99,3.94-1.36,5.62-2.69,1.31-1.03,2.02-3.07,2.88-3.69,1.49-1.07,5.3-1.42,6.75-3.3,1.34-.12.21.47.21.65Z"/>
  <path class="st0" d="M268.55,440.85l-1.31-46.8c3.95,0,7.9.16,11.81-.44l1.31,31.49c.09.62-.09,1.03-.41,1.54-2.27,3.59-6.58,7.3-9.07,11.07-.69,1.04-.56,3-2.33,3.14Z"/>
  <path class="st0" d="M342.9,323.2c-.1,1.67-.34,2.08,1.31,2.62-.63.3-4.67,2.9-4.7,3.27,3.15,7.27,4.34,14.25,2.19,21.99-1.97,7.09-5.78,12.71-10.61,18.04-.49-1.27.87-3.38.87-4.15v-7.43c0-8.55-6.35-14.98-13.37-18.55-.33-.17-1.4-.17-.62-.91.19-.18,4.48-1.2,5.08-1.27,4.21-.49,8.22.83,11.98,2.58.37-.48-1.45-3.74-2-4.33l-4.11-3.75c4.49-2.97,9.07-5.89,13.99-8.1Z"/>
  <path class="st0" d="M188.96,417.46c-.18.28-1.21,1.34-2.38,2.48-.12-.05-.24-.09-.35-.14-1.57-.39-3.06-.76-4.49-1.13-1.61-.4-3.13-.79-4.54-1.14-7.4-1.86-12.03-3.04-12.66-3.26h0c.03-.18.05-.34.08-.51.64-4.44.92-8.94,1.6-13.36.07-.48-.22-.91.64-.65,1.3.39,6.34,3.28,7.63,4.17,5.08,3.52,9.38,9.44,14.9,12.45.17.64-.18.73-.43,1.09Z"/>
  <path class="st0" d="M285.17,419.42c1.66-2.03,2.02-1.94,4.81-1.75l-2.19-25.8h6.12c.36,8.4,2.03,16.98,2.19,25.37-1.48.69-3.12.23-4.57.46-.66.11-1.13.73-1.79.84-1.57.26-3.26-.51-4.57.89Z"/>
  <path class="st11" d="M196.54,424.07c-1.97-.82-3.82-1.59-5.51-2.29-.16-.07-.32-.13-.48-.2-.05-.02-.1-.04-.14-.06.13-.17.28-.33.44-.46.13-.11.26-.21.4-.3.06-.04.11-.07.17-.1.18-.1.37-.18.57-.23.08-.03.17-.04.25-.06.24-.04.5-.04.75,0,1.41.22,2.72,2.02,4.27,2.12.15.21-.18.82-.72,1.58Z"/>
  <path class="st0" d="M303.54,417.67c.06.66,1.25.66,1.31,0h.44c0,.09.82.04.02.67l-9.2.2c-.02-.29.02-.58,0-.87h7.43Z"/>
  <path class="st0" d="M348.59,321.45c-.99.07-1.71-.06-2.62,0,.44-1.35,1.84-.73,2.62,0Z"/>
  <path class="st0" d="M309.23,264.16c-.14-.02-.29.02-.44,0-.48-1.39.6-1.72.87-2.19l-.44,2.19Z"/>
  <path class="st0" d="M345.53,321.45c-.33,1.82-1.03,1.03-1.75,1.31.28-.62,1.13-1.19,1.75-1.31Z"/>
  <path class="st0" d="M197.26,430.35c-2.15.04-1-.55-1.31-.87.63.04,1.13.25,1.31.87Z"/>
  <path class="st0" d="M268.55,441.29c-.55,1.15-1.49.02-1.75,0h1.75Z"/>
  <path class="st0" d="M265.93,441.29c-.12,0-.57,0-.87,0h.87Z"/>
  <path class="st0" d="M307.91,264.16h-.44s.15-.03.44,0Z"/>
  <path class="st0" d="M185.89,280.34c.13,3.66.12,7.71,0,11.37-.16,4.67-.4,10.81-1.52,15.32-1.44,5.79-7.02,8.82-5.81,15.85.57,3.31,5.89,9.04,5.81,9.99-.18,2.2-3.08,8.15-5.17,9.23-2.37,1.22-9.3.53-11.04-1.38-1.02-1.11-.74-7.49-.63-9.42.69-12,3.29-21.49,1.68-34.06-.25-1.92-2.96-14.04-3.88-14.71-1.29-.95-.43,1.19-.4,1.94.11,2.73.34,5.39.41,8.12.09,3.55.12,7.39,0,10.93-.21,5.85-.51,11.95-2.4,17.49-7.81-11.43-19.48-19.01-32.58-23.18,7.59-13.34,14.82-27.75,28.43-35.86,4.04-2.41,8.91-4.85,13.26-6.64,1.1-.45,2.74-1.42,3.76-1.02,8.48,3.25,9.82,18.41,10.09,26.03Z"/>
  <path class="st0" d="M279.69,227.85c.82-1.9,2.33-6.67,2.29-8.61-.02-1.08-1.02-1.61-1.2-2.95-.64-4.77.88-12.83.47-18.4-.43-5.86-2.64-8.69-4.29-13.64-4.42-13.19-6.6-25.22-21.1-31.39-4.22-1.79-5.72-2.44-9.75-4.68-4.55-2.53-10.45-3.2-15.13-.53-10.45,5.96-21.19,9.76-26.89,21.22-2.51,5.06-2.87,9.9-4.62,15.06-1.6,4.68-3.91,8.22-4.39,13.54-.35,3.89,1,17.96.2,19.88-.15.36-.82.65-.99,1.2-.41,1.3.87,7.35,1.44,8.87.75,1.99,2.3,3.43,2.88,5.43-2.26,1.51-4.58,3.25-6.16,5.51-1.1,1.57-3.38,5.25.01,5.52l12.17-10.65c.45-1.72-1.46-2.42-2.31-3.65-1.16-1.67-1.84-3.83-2.01-5.86-.47-5.46-.58-17.37.06-22.71.73-6.08,4.99-7.78,10.11-9.57,15.1-5.31,44.17-5.58,58.8,1.36,4.2,1.99,6.3,4.15,6.72,9.02.35,4.09.45,21.41-.99,24.41-.57,1.21-2.59,2.27-2.88,3.26-.49,1.64,1,5.19.74,7.73-.22,2.24-2.85,6.65-2.85,7.48,0,.49,1.18,1.97,1.58,2.54.29.41.86.26.89.3.66-4.76,4.3-6.44,4.4-11.6.02-.99-.55-2.31-.4-2.96.08-.33,2.63-3.8,3.2-5.13ZM252.52,182c-16.98-2.1-29.28.4-45.62,3.68-.43.08-1.75.49-1.77-.02,7.28-4.19,18.29-10.34,20.97-18.83,1.34-4.23.76-8.66,1.83-12.61,1.99-7.43,15.23-7.95,18.84-1.89,1.78,2.99,1.45,8.69,2.41,12.46,2.76,10.84,12.99,14.87,21.12,21.08-5.84-1.43-11.79-3.13-17.78-3.87Z"/>
  <path class="st0" d="M119.85,317.52c14.7,1.39,26.95,12.29,36.3,22.96l-12.45-2.42c-5.41,0-10.87-.14-16.19.9-.64.12-1.36,0-1.54.87,12.42,1.04,24.66,4.25,35.86,9.63.15.66-.09.7-.46,1.06-1.33,1.32-4.24,2.79-5.87,4.19-8.63,7.42-13.75,18.19-12.91,29.73-31.5-16.52-38.13-33.76-22.74-66.91Z"/>
  <path class="st0" d="M148.28,387.49c-.29-8.49,3.08-17.58,8.52-24.06,1.54-1.83,10.15-10.09,12.16-9.56.39.1,6.08,4.22,6.59,4.71.3.29.52.61.28.9-.16.19-3.32,1.94-4.14,2.65-6.63,5.74-13.81,15.74-14.66,24.7-.14,1.5.14,3.11,0,4.59-2.85-1.44-5.87-2.56-8.75-3.94Z"/>
  <path class="st0" d="M126.85,303.52c11.56,1.43,21.99,9.94,29.53,18.36.81.9,4.05,4.54,4.35,5.27.87,2.13-.73,5.63-1.08,7.85-10.25-10.48-21.63-20.87-36.73-23.18,1.36-2.73,2.47-5.61,3.94-8.31Z"/>
  <path class="st0" d="M234.42,288.89c-.26-8.58-.23-17.19-.39-25.77-4.24-1.06-7.66-1.52-11.36-4.03-4.28-2.89-4.5-5.38-5.84-10.13l-9.3-5.35-10.5,8.73h-.63c-.1-1.68-6.69-6.51-7.67-6.43-.62.05-1.57,1.47-.82,2.11,1.65,1.39,3.42,2.11,4.98,4.11,11.23,14.43,7.55,37.16,7,53.8-.24,7.15,1.84,6.6,2.86,11.56,1.13,5.44-.73,9.71-4.84,13.14-1.17.97-3.58,1.99-4.34,3.1-1.32,1.92-2.21,6.07-3.67,8.57-2.23,3.83-6.19,7.84-10.79,8.46-2.07.28-4.64-.21-6.78,0-.24,1.02.2.72.56,1,4.97,3.91,12.42,7.41,17.95,11.32,1.63,1.16,5.62,4.99,6.75,5.49,3.99,1.77,15.05,2.6,20.23,3.83,1.69.4,5.89,2.26,6.98,1.76.72-.33,3.74-4.13,3.88-4.92.23-1.24-1.92-8.08-2.11-10.4-.65-8.28.75-17.63,3.37-25.48.98-2.94,5.67-11.93,5.74-13.86.31-9.99-.96-20.58-1.26-30.61ZM222.63,334.14h-19.68c-.66-3.22,1.54-5.54,2.32-8.4,1.6-5.88.49-9.79-2.26-14.98l1.69-24.29h16.83c.1,0,.5-.66.66-.44.8,15.96.31,32.07.44,48.11Z"/>
  <path class="st11" d="M352.72,305.73c-.7-1.72-6.13-11.13-7.48-11.36-1.09-.18-2.54,2.92-3.23,3.68-11.49,12.71-30.49-1.64-23.38-17.71.67-1.51,5.17-6.56,4.57-7.41-5.34-2.91-10.25-6.11-16.7-5.16-4.09.61-6.71,3.88-2.39,6.54l5.11,2.09c-1.98,1.1-4.93.47-6.69.97-1.71.49-6.99,11.89-8.11,14.19-3.63,7.38-6.85,15-10.37,22.43-.22.79-.29,1.59-.18,2.4.35,2.4,7.58,8.03,9.62,10.08,2.41,2.43,4.55,5.32,7.19,7.68.58.51,3.79,3.35,4.05,3.42.99.27,2.13-.38,3.04-.73,4.41-1.7,10.66-5.05,15.02-7.29,7.71-3.95,15.13-8.55,22.74-12.69,1-1.05-.91-5.1-.44-6.78,2.41-.18,4.28,6.55,4.88,6.93,1.61,1,3.18-.5,3.75-2.01,1.15-3.06.19-6.4-1-9.27ZM298.74,314.69c-1.92,2.02-3.1,4.06-6.14,2.82l15.74-18.15c1.74-1.47,3.03-4.03,5.69-3.71-.41,1.45-1.32,2.53-2.2,3.7-3.46,4.66-9.06,11.09-13.09,15.34ZM324.09,308.99c-1.52,2.17-17.98,17.92-19.8,18.68-.55.23-1,.46-1.62.34-.42-2.67.12-2.09,1.31-3.25,6.57-6.42,13.4-13.02,20.98-18.18.15,1-.34,1.66-.87,2.41Z"/>
  <path class="st0" d="M210.39,400.18c-.52,3.87,3.5,6.96,6.11,9.41,1.27,1.19,4.99,3.27,5.26,4.83.54,3.15-2.11,3.09-4.49,2.71-2.55-.4-6.87-3.36-9.03-4.96-1.04-.77-5.84-5.53-6.59-4.99-1.09,2.15,1.16,4.81,2.62,6.34,1.14,1.2,7.68,5.62,7.83,6.2.72,2.74-5.18,2.53-6.88,2.03-3.97-1.15-15.75-10.77-19.32-13.91-5.67-4.98-9.6-7.74-8.74-16.18.57-5.52,8.07-15.77,12.72-18.77,4.4-2.84,4.82-.87,9.13-.02,5.7,1.12,19.76,2.17,23.43,6.31,1.76,1.99,3.56,5.34,5.46,7.66,1.91,2.33,9.27,9.25,9.59,11.41.45,2.99-2.01,6.08-5.12,4.66l-11.95-10.79c-1.14-1.12-2.65-.54-2.43,1.07.44,3.22,5.32,7.59,7.7,9.84,1.68,1.58,7.75,4.84,3.23,7.15-6.52,3.33-13.04-8.53-18.53-10Z"/>
  <path class="st0" d="M258.05,379.62c1.63-1.58-7.97-6.03-8.89-6.64-3.12-2.07-8.99-6.74-8.08-10.97.46-2.15,2.31-2.5,4.18-1.74,2.08.85,6.9,4.91,9.33,6.41,2.64,1.63,10.34,7.43,12.19,3.58-.38-1.8-18.75-9.96-20-15.03-.96-3.9,3.27-4.05,6.03-2.95,4.95,1.98,13.03,9.19,17.81,10.18,1.01.21,4.84.18,4.49-1.42-.14-.63-5.29-3.67-6.26-4.24-3.7-2.18-11.56-5.38-14.31-7.99-3.81-3.61.15-6.35,4.18-6.4,10.4-.14,20.03,10.11,28.33,14.56,4.05,2.17,6.25.69,8.5,5.93,5.99,13.97-10.47,26.17-22.85,27.21-10.93.91-28.44-5.29-34.68-14.73-1.82-2.75-3.22-6.57,1.66-6.04,2.34,2.18,4.89,4.25,7.56,6,3.11,2.04,6.97,4.71,10.81,4.27Z"/>
  <path class="st0" d="M257.19,241.42c.07-.64-.21-1.55.09-2.09.15-.27,4.12-2.82,4.94-3.58,5.14-4.71,6.21-10.71,6.33-17.5l-1.99,3.91c-6.36,7.75-14.25-.17-19.01-5.43-1.88-2.07-6.9-9.96-8.99-10.28-.56-.08-1.08-.09-1.62.07-1.41.43-5.84,7.23-7.3,8.89-4.77,5.45-13.48,14.9-20.32,6.74l-1.99-3.47c.27,5.37,2,14.1,6.25,17.79.69.6,2.38,1.19,3.23,1.79.38.26,1.26.24.36.97-5.76-2.97-8.92-6.37-10.43-12.75-1.21-5.09-2.17-19.21-.3-23.78.84-2.05,2.6-3.63,4.53-4.66,8.81-4.7,41.83-4.56,51.37-1.36,3,1.01,5.55,2.35,6.87,5.37,2.75,6.26,1.35,22.5-1.32,28.86-2.16,5.15-6.53,7.25-10.7,10.51Z"/>
  <path class="st0" d="M270.3,263.07c-.18-1.76-2.11-8.35-3.8-8.91-1-.34-2.22.43-3.36.37-1.61-.1-3.08-1.52-4.64-1.74-2.62,5.82-10.04,9.37-16.17,10.08l-.89,47.21c9.8-15.2,30.86-26.48,28.86-47.01ZM259.37,284.06c-.26,1.88-5.77,7.07-7.44,8.53v-8.75c2.27.35,4.53-.78,6.79-.44.58.09.78-.24.65.66Z"/>
  <path class="st11" d="M290.15,345.78c-6.92-6.73-16.51-15.12-22.45-22.37-1.16-1.42-3.07-4.01-3.41-5.78-2.26-11.91,9.99-3.34,14.1-.1,6.86,5.41,27.63,25.07,28.99,33.11.64,3.79-.46,7.04-4.9,6.22-2.48-.46-10.05-8.87-12.32-11.08Z"/>
  <path class="st0" d="M298.73,387.93c-.18,0-.9-.44-1.51-.44-1.68,0-3.37,0-5.05,0,8.81-7.97,11.99-18.96,4.81-29.29,2.15-.08,3,1.89,4.94,2.7,3.91,1.65,6.41-.18,8.82-3.17.65-.8.33-2.04,1.54-1.73,4.57,8.96,2.97,19.03-1.74,27.55-2.51,1.12-9.4,4.28-11.81,4.37Z"/>
  <path class="st0" d="M252.37,335.01h7.87c-1.59,4.91-5.89,3.1-8.98,6.99-1.35,1.7-1.51,3.88-2.18,4.82-.38.53-2.55.9-3.5,1.75-2.09,1.86-2.1,5.76-4.59,6.56-.41-2.84.38-5.84.45-8.51.17-6.16-1.03-17.29.08-22.66.36-1.72,3.84-7.21,4.97-9.03,1.49-2.41,3.13-4.9,4.99-7.03l.88,27.12Z"/>
  <path class="st0" d="M189.83,368.24c-10.28,5.88-16.4,17.24-17.51,28.85-.49.42-7.73-2.52-8.08-3.04-.39-.57-.7-3.73-.68-4.6.19-8.48,7.93-20.32,14.76-25.07.75-.52,2.52-1.79,3.35-1.72s8.55,5,8.16,5.58Z"/>
  <path class="st11" d="M329.23,276.51c-4.31.74-8.47,5-9.03,9.34-1.47,11.19,12.28,18.31,19.82,9.33,7.06-8.4-.68-20.4-10.79-18.67ZM331.73,293.92c-7.95.43-8.63-11.09-1.18-12.17,8.07-1.17,9.76,11.7,1.18,12.17Z"/>
  <path class="st0" d="M199.1,317.21c-1.23-3.42-4.88-5.84-8.5-5.7-8.07.32-11.93,10.92-5.12,15.82,7.08,5.09,16.58-1.91,13.62-10.12ZM190.5,324.08c-3.25-2.82-.19-5.63.64-8.75.58-.12.52.46.65.87.78,2.55,1.98,6.83-1.29,7.88Z"/>
  <path class="st0" d="M325.85,374.37c-2.06,1.71-4.31,2.96-6.56,4.37,2.57-9.27,3.14-19.89-2.88-27.95-1.91-2.56-4.21-3.86-6.3-6.16,6.66-2.05,13.27,3.86,15.32,9.82,2.21,6.42,1.27,13.34.42,19.92Z"/>
  <path class="st11" d="M288.1,351.49c-.67.56-1.58.7-2.36.25-4.85-2.95-9.2-6.75-14.26-9.38-1.07-.56-6.19-2.3-6.39-2.58-.58-.83,3.24-6.79,4.09-7.43.6-.45.94-.51,1.67-.33,1.4.35,10.95,9.75,12.59,11.5.8.85,5.67,6.06,5.61,6.49-.02.17-.76,1.33-.94,1.48Z"/>
  <path class="st11" d="M237.65,381.65c1.92,1.97,4.8,4.17,7.26,5.44.29.43-3.13,6.24-5.67,5.46-2.17-.67-11.7-10.68-12.16-12.82-.3-1.43,3.63-5.51,4.94-5.39,1.09.1,2.13,3.04,2.93,4.11.68.9,1.93,2.42,2.7,3.2Z"/>
  <path class="st0" d="M253.68,249.73c-1.35.22-.68-.37-.88-1.07-1.47-5.34-4.19-10.05-9.46-12.43-9.5-4.29-19.48,4-20.29,13.5-.79-.16-.81-.86-.89-1.51-.82-7.26,7.01-16.61,14.23-17.28,9.8-.91,18.17,9.47,17.27,18.8Z"/>
  <path class="st0" d="M255.87,235.3c-8.13-8.29-20.49-10.64-30.49-4.03l-4.93,4.03c5.15-10.17,18.16-13.28,27.95-7.61,2.84,1.64,6.21,4.52,7.47,7.62Z"/>
  <path class="st0" d="M236.19,339.39c-1.19,7.15.85,14.83,0,22.09-.11.95-.31,1.76-1.1,2.39-2.69-6.42-1.75-16.75.16-23.47.21-.74-.33-1.22.93-1.01Z"/>
  <path class="st0" d="M267.68,240.98c.86,2.77-4.17,2.74-4.74,4.68-.65,2.21,2.15,5.38,2.11,6.03-.08,1.39-4.01,1.05-4.7-2.29-1.12-5.42,3.2-6.83,7.33-8.43Z"/>
  <path class="st13" d="M185.89,291.71c.12-3.66.13-7.71,0-11.37.77,2.7.48,6.11.44,8.97,0,.74.28,1.95-.44,2.4Z"/>
  <path class="st13" d="M165.34,303.52c.12-3.54.09-7.38,0-10.93.78,2.55.47,5.82.44,8.53,0,.74.28,1.94-.44,2.4Z"/>
  <g>
    <path class="st9" d="M164.48,414.25s.03.01.06.02h0s-.05-.02-.06-.02ZM377.62,247.38l-36.47,28.15c5.29-16.12,17.42-28.07,27.49-41.3,3.25-4.26,6.29-8.66,8.81-13.37-.28-.93-1.05.53-1.23.75-2.86,3.54-5.99,6.91-9.21,10.25-9.67,10.04-20.08,19.73-25.94,32.44-.81,1.77-1.9,6.47-3.25,7.25-2.31,1.33-4.38-.1-6.56-.35-1.67-.19-3.32.16-5.01-.23-1.88-.44-4.74-3-6.98-3.96-2.99-1.28-6.84-2.34-10.05-2.85-.14-.02-.29.02-.43,0-.28-.04-.59.03-.88,0h-.44c-.86-.07-1.75.03-2.62,0-3.92,1-8.16,3.57-8.27,8.14-.05,1.78,1.57,2.75,1.06,4.08-6.16,9.44-9.87,22.39-16.23,31.48-1.45,2.08-2.03,3.73-4.87,2.76-3.79-1.3-1.65-4.27-1.44-7.32.32-4.6.66-14.08-.46-18.33-.59-2.22-2.29-1.29-2.59-1.57-.34-.31,3.1-7.15,3.5-8.52,2.6-8.78,1.39-16.88-2.19-25.15-.27-.63-.61-1.82-.87-2.19-.03-.04-.6.11-.89-.3-.4-.57-1.58-2.05-1.58-2.54,0-.83,2.63-5.24,2.85-7.48.26-2.54-1.23-6.09-.74-7.73.29-.99,2.31-2.05,2.88-3.26,1.44-3,1.34-20.32.99-24.41-.42-4.87-2.52-7.03-6.72-9.02-14.63-6.94-43.7-6.67-58.8-1.36-5.12,1.79-9.38,3.49-10.11,9.57-.64,5.34-.53,17.25-.06,22.71.17,2.03.85,4.19,2.01,5.86.85,1.23,2.76,1.93,2.31,3.65l-12.17,10.65c-3.39-.27-1.11-3.95-.01-5.52-15.89-9.51-33.86,7.43-33.68,23.61,4.04-2.4,8.92-4.85,13.27-6.63,1.1-.45,2.74-1.42,3.76-1.03,8.48,3.25,9.82,18.41,10.09,26.03.77,2.7.48,6.11.45,8.97-.01.74.27,1.95-.45,2.4-.16,4.67-.4,10.82-1.52,15.33-1.43,5.78-7.01,8.81-5.81,15.84.57,3.31,5.89,9.04,5.81,9.99-.18,2.2-3.08,8.15-5.17,9.23-2.37,1.22-9.3.52-11.04-1.38-1.02-1.11-.74-7.49-.63-9.42.68-12,3.28-21.49,1.68-34.06-.25-1.92-2.96-14.03-3.88-14.71-1.29-.95-.43,1.19-.4,1.94.1,2.72.34,5.39.41,8.12.77,2.54.47,5.82.44,8.53-.01.74.28,1.95-.44,2.4-.21,5.86-.51,11.95-2.41,17.49-7.8-11.43-19.48-19.01-32.58-23.17-1.06,1.86-2.43,3.71-3.5,5.68,11.56,1.43,21.99,9.94,29.53,18.37.8.9,4.05,4.53,4.34,5.27.87,2.12-.73,5.62-1.08,7.85-10.24-10.48-21.63-20.87-36.73-23.18-.91,1.83-2.13,3.69-3.06,5.69,14.7,1.39,26.95,12.29,36.3,22.96l-12.45-2.42c-5.41.01-10.86-.14-16.19.89-.64.13-1.36,0-1.54.87,12.42,1.04,24.67,4.25,35.87,9.63.15.66-.1.7-.47,1.06-1.33,1.32-4.23,2.79-5.86,4.2-8.63,7.41-13.75,18.19-12.92,29.72,1.91,1,3.73,2.13,5.69,3.06-.29-8.49,3.07-17.58,8.52-24.06,1.54-1.82,10.15-10.08,12.16-9.55.39.1,6.07,4.22,6.59,4.71.31.29.52.61.28.91-.16.18-3.32,1.93-4.14,2.64-6.63,5.74-13.81,15.74-14.66,24.7-.14,1.5.14,3.11,0,4.59-.65,6.67-1.48,13.35-1.93,20.03,2.32.54,5.08,1.21,8.21,1.98.43.11.87.21,1.31.32.64-4.44.92-8.94,1.6-13.36.07-.48-.22-.91.64-.65,1.3.39,6.34,3.28,7.63,4.17,5.08,3.52,9.38,9.44,14.9,12.45.17.64-.18.73-.43,1.09-.18.28-1.21,1.34-2.38,2.48,1.13.47,2.42,1,3.83,1.58.13-.17.28-.33.44-.46.13-.11.26-.21.4-.3.06-.04.11-.07.17-.1.18-.1.37-.18.57-.23.08-.03.17-.04.25-.06.24-.04.5-.04.75,0,1.41.22,2.72,2.02,4.27,2.12.15.21-.18.82-.72,1.58,1.8.77,3.7,1.57,5.66,2.39.92-.01,2.53.76,3.59.83,4.42.3,6.94.08,10.49-2.63,1.1-.84,1.96-2.26,3.13-2.99,1.61-.99,3.94-1.36,5.62-2.69,1.31-1.03,2.02-3.07,2.88-3.69,1.49-1.07,5.3-1.42,6.75-3.3,1.34-.12.21.47.21.65v27.59c1.1.46,2.13.88,3.06,1.26,2.9,1.18,4.91,1.96,5.58,2.13l1.38-1.1c-.14-.03-.28-.07-.42-.11-1.22-5.64-.65-11.71-.83-17.54-.26-8.39-.76-16.88-.45-25.34,2.23-3.13,4.93-5.81,6.41-9.44,1.6.17,8.44,2.09,8.66,3.46l-.2,44.38v3.36c.57-.03,1.16,0,1.74,0,.58-.02,1.17,0,1.75,0,1.16-.01,2.34-.04,3.5,0h.88c.29,0,.58-.02.87,0h1.75c.05-.11-.04-.3,0-.44l-.1-3.52-1.21-43.28c3.95.01,7.9.16,11.81-.43l1.31,31.49c1.98-1.5,3.32-3.86,4.81-5.69.08-.1.16-.19.22-.27.02-.02.04-.04.06-.06l.15-.18s.02-.03.04-.04c.05-.06.11-.12.16-.18.03-.04.07-.07.11-.11.02-.03.05-.06.08-.08l.17-.17c.06-.06.12-.11.17-.15.13-.11.25-.19.37-.26.08-.05.15-.09.23-.12.08-.04.16-.07.24-.09.02-.01.04-.01.06-.02.02,0,.04-.01.06-.01t.02-.01c.45-.11.97-.11,1.71-.06h.04c.22.01.46.03.73.05.06,0,.13,0,.19,0l-2.19-25.8h6.13c.36,8.39,2.03,16.98,2.18,25.36.01.1,0,.2,0,.3v.14h7.88l-5.25-29.74c-.18.01-.9-.44-1.51-.44-1.69.01-3.38,0-5.05,0,8.8-7.97,11.99-18.96,4.81-29.29,2.15-.08,3,1.88,4.94,2.7,3.91,1.65,6.41-.18,8.82-3.17.64-.8.33-2.04,1.54-1.72,4.57,8.96,2.97,19.03-1.74,27.55,3.53-1.58,5.51-2.78,8.74-4.81,2.57-9.27,3.14-19.9-2.88-27.95-1.91-2.56-4.21-3.86-6.3-6.16,6.66-2.05,13.27,3.85,15.32,9.82,2.21,6.42,1.27,13.34.42,19.91,1.96-1.61,3.56-3.38,5.25-5.24-.49-1.28.88-3.39.88-4.16v-7.43c0-8.55-6.35-14.98-13.38-18.55-.33-.17-1.4-.18-.62-.91.19-.18,4.48-1.2,5.08-1.27,4.2-.5,8.22.83,11.97,2.58.38-.49-1.45-3.74-2-4.34l-4.11-3.75c4.49-2.97,9.07-5.89,13.99-8.1.27-.12.49-.29.87-.43.28-.63,1.13-1.2,1.75-1.32.14-.02.3.01.44,0,.44-1.34,1.84-.72,2.62,0,1.32-.09,2.66.21,3.97-.19,3.94-1.21,5.37-10.84,4.78-14.24-.48-2.81-5.01-9.65-6.81-12.21-.71-.99-3.15-3.3-3.46-3.98-.55-1.2-.06-3.04-.33-4.48-.3-1.66-2.92-5.54-2.32-6.87.32-.71,10.57-8.22,12.26-9.64,7.68-6.48,14.74-13.99,21.86-21.12,4.1-4.1,8.21-8.08,12.48-11.67l-13.39,10.33ZM329.23,276.51c10.11-1.73,17.85,10.27,10.79,18.67-7.54,8.98-21.29,1.86-19.82-9.33.56-4.34,4.72-8.6,9.03-9.34ZM270.3,263.07c2,20.53-19.06,31.81-28.86,47.01l.89-47.21c6.13-.71,13.55-4.26,16.17-10.08,1.56.22,3.03,1.64,4.64,1.74,1.14.06,2.36-.71,3.36-.37,1.69.56,3.62,7.15,3.8,8.91ZM236.19,339.39c-1.2,7.15.84,14.83,0,22.09-.11.95-.31,1.76-1.1,2.39-2.68-6.42-1.75-16.75.16-23.47.21-.74-.32-1.23.94-1.01ZM223.06,249.73c-.79-.17-.81-.86-.89-1.52-.82-7.25,7.02-16.61,14.24-17.28,9.8-.91,18.17,9.47,17.27,18.8-1.35.22-.69-.37-.88-1.07-1.47-5.35-4.18-10.05-9.45-12.43-9.5-4.3-19.49,3.99-20.29,13.5ZM220.44,235.29c5.15-10.17,18.16-13.28,27.96-7.61,2.83,1.64,6.21,4.52,7.46,7.62-8.13-8.29-20.48-10.64-30.49-4.04l-4.93,4.03ZM241.53,323.96c.36-1.72,3.84-7.21,4.97-9.03,1.49-2.4,3.13-4.9,4.99-7.03l.88,27.11h7.87c-1.58,4.91-5.89,3.11-8.98,6.99-1.35,1.7-1.51,3.88-2.17,4.82-.38.53-2.56.9-3.51,1.74-2.09,1.86-2.1,5.77-4.58,6.57-.42-2.84.38-5.84.45-8.51.17-6.16-1.03-17.29.08-22.66ZM265.04,251.7c-.08,1.39-4.01,1.05-4.7-2.29-1.12-5.42,3.21-6.83,7.33-8.43.86,2.78-4.17,2.75-4.74,4.69-.65,2.21,2.15,5.37,2.11,6.03ZM206.43,202.7c.84-2.06,2.6-3.63,4.53-4.66,8.81-4.69,41.83-4.56,51.37-1.35,3,1,5.55,2.35,6.88,5.37,2.74,6.26,1.35,22.49-1.32,28.85-2.17,5.15-6.54,7.26-10.71,10.51.07-.64-.21-1.55.1-2.1.15-.26,4.12-2.82,4.94-3.58,5.14-4.71,6.21-10.7,6.33-17.5l-2,3.91c-6.36,7.75-14.25-.17-19-5.43-1.88-2.07-6.91-9.96-8.99-10.28-.56-.08-1.08-.09-1.63.08-1.41.42-5.84,7.22-7.29,8.89-4.77,5.45-13.49,14.89-20.32,6.74l-1.99-3.47c.26,5.37,2,14.1,6.25,17.79.69.6,2.38,1.19,3.23,1.79.37.26,1.26.24.36.97-5.76-2.97-8.92-6.37-10.44-12.75-1.2-5.09-2.16-19.21-.3-23.78ZM190.6,311.51c3.62-.14,7.27,2.28,8.5,5.7,2.96,8.21-6.54,15.21-13.62,10.12-6.81-4.9-2.95-15.5,5.12-15.82ZM172.89,351.76c-.36-.28-.8.02-.56-1,2.14-.21,4.71.28,6.78,0,4.6-.62,8.56-4.63,10.79-8.46,1.46-2.5,2.35-6.65,3.67-8.57.76-1.11,3.17-2.13,4.34-3.1,4.11-3.43,5.97-7.7,4.84-13.14-1.02-4.96-3.1-4.41-2.86-11.56.55-16.64,4.23-39.37-7-53.8-1.56-2-3.33-2.72-4.98-4.11-.75-.64.2-2.06.82-2.11.98-.08,7.57,4.75,7.67,6.44h.63s10.5-8.74,10.5-8.74l9.3,5.35c1.34,4.75,1.56,7.24,5.84,10.13,3.7,2.51,7.12,2.97,11.36,4.03.16,8.58.13,17.19.39,25.77.3,10.03,1.57,20.62,1.26,30.61-.07,1.93-4.76,10.92-5.74,13.86-2.62,7.85-4.02,17.2-3.37,25.48.19,2.32,2.34,9.16,2.11,10.4-.14.79-3.16,4.59-3.88,4.92-1.09.5-5.29-1.36-6.98-1.76-5.18-1.23-16.24-2.06-20.23-3.83-1.13-.5-5.12-4.33-6.75-5.49-5.53-3.91-12.98-7.41-17.95-11.32ZM172.31,397.1c-.49.41-7.73-2.53-8.07-3.04-.39-.57-.7-3.73-.68-4.6.19-8.48,7.92-20.33,14.75-25.07.75-.52,2.52-1.8,3.35-1.73.83.07,8.55,5.01,8.17,5.58-10.28,5.88-16.4,17.24-17.52,28.86ZM232.36,402.91l-11.95-10.8c-1.13-1.12-2.65-.54-2.43,1.08.45,3.22,5.33,7.59,7.7,9.84,1.68,1.58,7.76,4.84,3.23,7.15-6.52,3.33-13.04-8.53-18.53-10-.51,3.87,3.5,6.96,6.12,9.41,1.27,1.19,4.99,3.27,5.26,4.82.54,3.15-2.11,3.09-4.49,2.72-2.55-.41-6.88-3.37-9.04-4.96-1.03-.77-5.84-5.54-6.59-5-1.09,2.16,1.17,4.81,2.62,6.34,1.15,1.2,7.68,5.63,7.83,6.21.72,2.73-5.18,2.52-6.88,2.03-3.97-1.15-15.75-10.77-19.33-13.91-5.66-4.98-9.6-7.74-8.73-16.19.56-5.51,8.07-15.77,12.71-18.77,4.4-2.84,4.83-.87,9.14-.02,5.7,1.12,19.76,2.17,23.42,6.31,1.77,1.99,3.57,5.34,5.47,7.66,1.91,2.33,9.27,9.25,9.59,11.41.45,3-2.01,6.08-5.12,4.67ZM239.23,392.56c-2.17-.67-11.7-10.68-12.15-12.83-.31-1.43,3.63-5.51,4.94-5.39,1.09.1,2.13,3.04,2.93,4.11.68.9,1.93,2.42,2.7,3.21,1.92,1.96,4.8,4.17,7.26,5.43.29.43-3.13,6.25-5.68,5.47ZM272.7,390.11c-10.93.92-28.45-5.29-34.68-14.72-1.82-2.76-3.22-6.58,1.66-6.04,2.34,2.18,4.88,4.25,7.56,6,3.11,2.03,6.97,4.71,10.81,4.27,1.63-1.58-7.97-6.03-8.88-6.64-3.13-2.07-8.99-6.73-8.09-10.97.46-2.15,2.31-2.5,4.18-1.74,2.08.86,6.9,4.92,9.33,6.41,2.65,1.63,10.34,7.44,12.19,3.59-.38-1.81-18.75-9.96-20.01-15.04-.96-3.89,3.27-4.05,6.03-2.94,4.96,1.98,13.04,9.19,17.82,10.17,1.01.21,4.83.19,4.48-1.41-.13-.63-5.29-3.67-6.26-4.25-3.7-2.18-11.55-5.38-14.31-7.99-3.8-3.61.16-6.35,4.18-6.4,10.4-.14,20.03,10.11,28.34,14.56,4.05,2.17,6.25.69,8.5,5.93,5.99,13.97-10.48,26.18-22.85,27.21ZM269.18,332.36c.59-.46.93-.52,1.66-.33,1.4.35,10.95,9.75,12.59,11.5.8.85,5.67,6.06,5.61,6.48-.03.17-.76,1.34-.94,1.48-.67.57-1.58.71-2.36.26-4.86-2.95-9.21-6.76-14.27-9.38-1.07-.56-6.18-2.3-6.38-2.58-.58-.84,3.24-6.8,4.09-7.43ZM302.47,356.86c-2.48-.46-10.06-8.87-12.33-11.08-6.91-6.74-16.5-15.12-22.45-22.37-1.16-1.42-3.07-4.01-3.41-5.78-2.26-11.91,9.99-3.33,14.1-.1,6.86,5.41,27.62,25.07,28.99,33.11.64,3.79-.46,7.04-4.9,6.22ZM345.24,294.37c1.35.23,6.78,9.64,7.48,11.36,1.19,2.87,2.15,6.21,1,9.27-.57,1.51-2.14,3.01-3.75,2.01-.6-.38-2.47-7.11-4.88-6.93-.47,1.68,1.44,5.73.44,6.78-7.61,4.14-15.03,8.74-22.74,12.69-4.36,2.24-10.61,5.59-15.02,7.29-.91.35-2.05,1-3.04.73-.26-.07-3.47-2.91-4.05-3.42-2.64-2.36-4.78-5.25-7.19-7.68-2.04-2.05-9.27-7.68-9.62-10.08-.11-.81-.04-1.61.18-2.4,3.52-7.43,6.74-15.05,10.37-22.43,1.12-2.3,6.4-13.7,8.11-14.19,1.76-.5,4.71.13,6.69-.97l-5.11-2.09c-4.32-2.66-1.7-5.93,2.39-6.54,6.45-.95,11.36,2.25,16.7,5.16.6.85-3.9,5.9-4.57,7.41-7.11,16.07,11.89,30.42,23.38,17.71.69-.76,2.14-3.86,3.23-3.68Z"/>
    <path class="st9" d="M386.2,247.98c-1.29,4.34-3.97,8.33-6.64,11.94-4.72,6.4-10.93,12.92-17.28,17.71-1.93,1.46-7.51,5.6-9.44,6.3-1.66.6-4.05.8-4.25-1.4,11.57-6.02,21.42-15.14,29.73-25.16,2.08-2.51,4.28-6.38,6.35-8.52.46-.47.77-1.02,1.53-.87Z"/>
    <path class="st9" d="M366.52,226.99c.22.95-.53.97-1,1.4-9.22,8.53-17.31,13.8-24.9,24.52-2.09,2.94-7.37,13.09-9.98,14.07-.58.22-1.11.33-1.73.24-1.19-1.18,6.5-12.67,7.7-14.38,4.6-6.55,18.67-22.97,25.97-25.2,1.27-.39,2.58-.74,3.93-.65Z"/>
    <path class="st9" d="M270.3,185.87c-5.84-1.43-11.79-3.13-17.77-3.87-16.98-2.11-29.28.39-45.62,3.68-.43.09-1.75.49-1.77-.02,7.28-4.19,18.29-10.33,20.97-18.83,1.33-4.22.76-8.65,1.82-12.61,1.99-7.42,15.24-7.95,18.85-1.89,1.78,2.99,1.45,8.69,2.41,12.46,2.76,10.84,12.99,14.87,21.12,21.08Z"/>
    <path class="st9" d="M222.63,334.14h-19.68c-.66-3.22,1.54-5.54,2.32-8.4,1.61-5.88.5-9.79-2.26-14.98l1.69-24.29h16.84c.09,0,.5-.65.65-.44.8,15.96.31,32.08.44,48.11Z"/>
    <path class="st9" d="M314.04,295.65c-.41,1.45-1.33,2.53-2.2,3.7-3.47,4.66-9.07,11.09-13.1,15.33-1.92,2.02-3.1,4.06-6.13,2.83l15.73-18.16c1.75-1.46,3.04-4.03,5.7-3.7Z"/>
    <path class="st9" d="M302.67,328.01c-.42-2.67.12-2.1,1.31-3.26,6.57-6.42,13.4-13.02,20.99-18.17.14.99-.34,1.65-.87,2.41-1.52,2.17-17.98,17.92-19.81,18.68-.55.23-.99.46-1.62.34Z"/>
    <path class="st9" d="M251.93,283.84c2.27.35,4.53-.78,6.79-.44.57.09.77-.24.65.66-.26,1.88-5.77,7.07-7.44,8.53v-8.75Z"/>
    <path class="st9" d="M330.55,281.75c8.08-1.17,9.77,11.7,1.19,12.17-7.95.43-8.64-11.09-1.19-12.17Z"/>
    <path class="st9" d="M191.15,315.33c.57-.13.52.45.65.87.78,2.54,1.98,6.83-1.29,7.87-3.25-2.81-.2-5.62.64-8.74Z"/>
  </g>
  <path class="st1" d="M384.23,429.85l-29.62,2.3-10.74.84-5.5.43-2.67.2-1.04-2.15-7.96-16.46-1.5-3.11-.56-1.17-4.94-.05h-.82s-9.5-.11-9.5-.11c-.5-1.71-.91-3.51-1.34-5.32-.06-.25-.12-.52-.18-.78-.12-.51-.25-1.02-.37-1.53-.59-2.39-1.27-4.74-2.29-6.84h-15.12l.05.15h0s.23.78.23.78l.47,1.64,2.65,9.1,1,3.45h-27.5v8.14h7.71l-1.67,3.58-.31.67-.3.65-.28.58-.34.74-1.55,3.33-4.83,10.38h-.01v.03s-.01.01-.01.01l-.05.1c-1.74.32-3.64.51-5.59.77-3.59.46-7.25,1.16-10.03,3.33-.73.56-1.4,1.21-1.98,2-2.22,2.95-1.63,5.77-6.02,7.88-.51.24-1.04.46-1.6.63-.21.06-.42.13-.63.18-1.84.5-3.88.66-6.04.56-3.08-.16-6.4-.83-9.85-1.84-1.37,4.37-3.01,11.46-4.12,16.66,1.09.16,2.17.28,3.25.36,18.08,1.26,34.67-9.01,53.35-8.74.73.01,1.45.04,2.17.06.59.02,1.19.06,1.78.11.57.05,1.14.1,1.7.14,17.53,1.73,31.69,9.79,47.87,12.01.76.11,1.53.19,2.3.27h.02s.02.01.02.01c1.84.19,3.71.3,5.62.3,1.25,0,2.52-.03,3.81-.12h.01c3.55-.24,7.23-.84,11.1-1.92,1.08-.29,2.17-.62,3.28-.99,2.46-.83,8.03-3.38,12.84-5.97,3.49-1.87,6.6-3.78,7.81-5.04.21-.21.42-.46.65-.76.06-.07.11-.15.17-.23.27-.36.56-.77.86-1.21.19-.29.39-.6.59-.93,2.65-4.21,5.95-10.8,7.37-13.73,1.48-3.08,2.85-6.33,4.12-9.58.05-.14.09-.26.14-.39.53-1.34,1.02-2.68,1.5-4l-7.58.6ZM308.22,419.36h13.48l.18.36,5.65,11.5,1.59,3.26-4.19.23-16.71.93v-16.28ZM287.91,423.97c.2-.4.4-.8.61-1.2.59-1.15,1.2-2.29,1.84-3.41h12.37v16.86l-20.9,1.74c1.13-2.79,2.27-5.61,3.48-8.38.58-1.35,1.19-2.69,1.82-4,.13-.28.26-.55.4-.83.12-.26.25-.52.38-.78Z"/>
  <g>
    <g>
      <path class="st2" d="M99.45,579.75l-27.63-6.48c-8.56,9.94-16.42,20.47-24.55,30.78-.42.54-1.12.85-1.33,1.11l-30.76-25.87c-.84-.98,1.71-1.11,2.14-1.19,9.68-1.91,19.82-2.48,29.48-4.63l-6.65-35.63c13.5,11.96,28.08,22.58,43.28,32.29,5.24,3.35,10.75,6.33,16.01,9.62Z"/>
      <path class="st2" d="M371.44,579.75c20.98-12.12,40.91-26.06,58.85-42.36l-7.58,36.11,32.1,5.13c-9.24,9.66-19.66,18.06-30.32,26.09-.05-.07-1.04-.16-1.58-.86-7.98-10.26-15.64-20.83-24.26-30.56-8.95,1.39-18.31,5.35-27.22,6.45Z"/>
      <path class="st3" d="M368.32,583.76l17.39-3.12-12.48,8.74c-.63.35-2.29-1.12-2.68-1.61-.58-.71-1.57-3.16-2.23-4.01Z"/>
      <path class="st3" d="M101.23,583.76c-.97,1.16-2.06,3.51-3.12,4.9-.21.28-.46.5-.46.88l-.61-.03-12.31-8.88,16.5,3.12Z"/>
      <path class="st2" d="M430.73,620.1c-31.25,25.2-66.34,45.49-104.87,57.42-59.81,18.51-134.27,17.18-193.2-4.13-33.64-12.16-65.09-31-92.87-53.28,11.5-13.9,22.2-28.5,34.02-42.12,23.31,17.21,48.76,31.74,76.13,41.57,49.82,17.89,102.73,20.05,153.72,5.45,33.69-9.65,64.66-26.79,93.05-46.98l34.02,42.07Z"/>
    </g>
    <g>
      <path class="st12" d="M393.75,631.53l-8.52-15.58v4.68c.19,1.65,1.5,10.75.62,11.41-.63.48-4.13,2.29-4.75,2.13l-11.91-9.3,8.91,16.27-6.02,3.74-14.88-27.83c1.63-1.07,5.33-4.08,7.2-3.71l15.04,11.08-2.24-18.48c.06-1.23,6.34-5.4,6.69-5.15l16.06,27.63-6.2,3.11Z"/>
      <path class="st12" d="M341.54,624.17c-.42-.27-6.7,2.65-7.14,3.14-.74.83-.48,2.85-.43,4.02.19,4.8,1.32,10.3,1.77,15.16.43,4.65.45,9.39.9,14.04,1.02-.49,6.15-2.17,6.48-2.65,1-1.49-.98-5.77-.17-7.08.28-.45,9.04-4.38,9.66-4.02.46.27,3.5,5.56,4.31,5.63l6.91-3.69-22.29-24.55ZM341.99,644.04l-1.34-10.7,7.13,8.46-5.79,2.24Z"/>
      <path class="st12" d="M312.48,635.2c-.57-.34-8.07,1.88-8.4,2.48l-1.78,33.11c1.01-.35,6.85-1.49,7.08-1.84.43-.67-.38-6.3.78-7.12.41-.29,9.07-3.33,9.48-3.04.53,1,3.09,6.03,3.84,6.09l6.91-2.12-17.91-27.56ZM309.88,655.19v-11.15c1.08-.24.73.19,1,.58,1.84,2.67,3.52,5.99,5.25,8.78l-6.25,1.79Z"/>
      <path class="st12" d="M293.38,640.47l-4.03,33.42-7.55.91-8.47-19.17-2.73,20.91c-1.71.16-6.73,1.59-8,.73l-12.91-30.55,7.52-.39,8.53,20.45,1.78-22.3c1.74.58,7.36-1.44,8.26-.46l8.68,19.64,1.41-21.79,7.51-1.4Z"/>
      <polygon class="st12" points="235.05 662.46 245.68 678.37 236.31 678.37 227.4 663.66 227.4 678.82 219.37 678.37 220.71 646.71 227.4 647.16 227.4 660.54 236.31 647.16 245.68 647.16 235.05 662.46"/>
      <path class="st12" d="M211.79,646.27l-.45,6.24c-1.84.54-10.16-1.41-11.08-.83-.47.29-.77,4.77-.96,5.73l9.53.96c1.21.33-.26,4.85-.17,6.17-.44.42-8.44-1.5-9.83-.69l-.87,6.5,11.6.89c.2.4-.07,7.61-1.94,6.66l-17.68-2.21,4.02-31.21,17.83,1.79Z"/>
      <path class="st12" d="M185.02,648.33c-.68-6.95-14.79-8.08-20.05-9.2l-6.22,30.75c7,.93,17.75,6.26,22.37-1.89,2.56-4.53.96-8.04-2.77-11.02,3.56-.84,7.03-4.87,6.67-8.64ZM174.15,665.28c-1,2.02-6.64,1.55-7.35.56-.4-.57.95-6.85,1.74-7.34,1.01-.63,4.81,1.02,5.56,2.04,1.05,1.44.8,3.23.05,4.74ZM169.43,653.4c1.43-3.44-.39-8.79,4.92-7.37,7.05,1.89.86,10.46-4.92,7.37Z"/>
      <path class="st12" d="M144.08,648.81l5.28,18.41-8.36-2.78c-1.48-5.6-3.81-11.09-4.57-16.83l.46-2.68,13.32-10.04,8.96,2.47-15.09,11.45Z"/>
      <path class="st12" d="M140.86,631.83l-3.97,13.1-.46,2.68c-.69.06-.67.68-.86,1.14-.68,1.71-3.49,12.1-4.02,12.5-1.02.31-6.17-1.45-6.5-2.03l9.17-29.88c.43-.31,6.48,1.95,6.64,2.49Z"/>
      <path class="st12" d="M112.37,619.71l-23.64,23.88c1.6.01,5.56,2.94,6.81,2.62,1.01-.26,3.65-3.89,4.79-4.65.53-.26,9.44,3.87,9.73,4.33.57.88-1.32,6.56-.76,7.45.21.32,6.79,3.04,7.07,2.74l3.99-32.96c-1.65-.18-6.92-3.94-7.99-3.41ZM111.46,639.58l-2.97-1.26c-.41-.67-3.15-1.24-2.81-2.07.84-2.09,5.84-6,7.56-7.82l-1.78,11.15Z"/>
      <path class="st12" d="M103.88,614.83l-26.07,21.63c-1.27-.92-6.36-3.33-6.44-4.65l5.76-32.8c.28-.31,6.84,3.74,7.05,4.09.89,1.49-4.85,19.48-4.81,22.66l17.22-15.09,7.29,4.16Z"/>
    </g>
  </g>
</svg>